<svg width="16" height="16" viewBox="0 0 16 16" fill="none" xmlns="http://www.w3.org/2000/svg">
<g clip-path="url(#clip0_7_2)">
<path d="M3.828 13.738C3.38067 13.7307 2.992 13.6647 2.662 13.54C2.33933 13.4153 2.09 13.221 1.914 12.957C1.738 12.7003 1.65 12.3777 1.65 11.989V10.372C1.65 10.1227 1.59867 9.92467 1.496 9.778C1.39333 9.624 1.243 9.514 1.045 9.448C0.847 9.37467 0.601333 9.338 0.308 9.338V8.535C0.601333 8.52767 0.847 8.491 1.045 8.425C1.243 8.359 1.39333 8.25267 1.496 8.106C1.59867 7.952 1.65 7.754 1.65 7.512V5.884C1.65 5.59067 1.70133 5.33767 1.804 5.125C1.914 4.905 2.06433 4.72533 2.255 4.586C2.453 4.43933 2.684 4.32933 2.948 4.256C3.212 4.18267 3.50533 4.146 3.828 4.146V4.938C3.57867 4.94533 3.36233 4.98567 3.179 5.059C2.99567 5.13233 2.85267 5.24233 2.75 5.389C2.65467 5.53567 2.607 5.73 2.607 5.972V7.556C2.607 7.93 2.508 8.23067 2.31 8.458C2.112 8.678 1.81133 8.82467 1.408 8.898V8.964C1.81867 9.03733 2.11933 9.18767 2.31 9.415C2.508 9.635 2.607 9.932 2.607 10.306V11.923C2.607 12.1577 2.65467 12.3483 2.75 12.495C2.84533 12.649 2.98467 12.759 3.168 12.825C3.35133 12.8983 3.57133 12.9387 3.828 12.946V13.738ZM12.1886 12.946C12.4453 12.9387 12.6616 12.8983 12.8376 12.825C13.0209 12.7517 13.1603 12.638 13.2556 12.484C13.3583 12.3373 13.4096 12.1467 13.4096 11.912V10.317C13.4096 9.943 13.5086 9.646 13.7066 9.426C13.9046 9.19867 14.2053 9.04833 14.6086 8.975V8.909C14.2053 8.83567 13.9046 8.689 13.7066 8.469C13.5086 8.24167 13.4096 7.941 13.4096 7.567V5.961C13.4096 5.719 13.3619 5.52467 13.2666 5.378C13.1713 5.23133 13.0319 5.12133 12.8486 5.048C12.6726 4.97467 12.4526 4.938 12.1886 4.938V4.146C12.5259 4.146 12.8266 4.18267 13.0906 4.256C13.3619 4.32933 13.5929 4.43933 13.7836 4.586C13.9743 4.72533 14.1173 4.905 14.2126 5.125C14.3153 5.345 14.3666 5.60167 14.3666 5.895V7.501C14.3666 7.75033 14.4179 7.952 14.5206 8.106C14.6233 8.25267 14.7736 8.36267 14.9716 8.436C15.1769 8.502 15.4226 8.535 15.7086 8.535V9.338C15.4226 9.338 15.1769 9.37467 14.9716 9.448C14.7736 9.514 14.6233 9.62033 14.5206 9.767C14.4179 9.91367 14.3666 10.1117 14.3666 10.361V12C14.3666 12.3887 14.2749 12.7113 14.0916 12.968C13.9083 13.2247 13.6516 13.4153 13.3216 13.54C12.9989 13.672 12.6213 13.738 12.1886 13.738V12.946Z" fill="#538AF7"/>
<path d="M4.55426 12.752V11.9785C4.89801 12.0215 5.15582 12.0645 5.34918 12.0645C6.10113 12.0645 6.35895 11.6777 6.35895 10.668V2.95508H7.26129V10.6895C7.26129 12.2148 6.76715 12.8379 5.49957 12.8379C5.24176 12.8379 4.94098 12.8164 4.55426 12.752ZM9.80676 4.52344V5.25391H11.1603V5.96289H9.80676V10.7969H8.9259V5.96289H7.85168V5.25391H8.9259V4.41602C8.9259 3.25586 9.52746 2.6543 10.5802 2.6543C10.8165 2.6543 11.0743 2.69727 11.3107 2.76172V3.51367C11.1173 3.44922 10.9239 3.42773 10.7521 3.42773C10.172 3.42773 9.80676 3.72852 9.80676 4.52344Z" fill="#E62112"/>
</g>
<defs>
<clipPath id="clip0_7_2">
<rect width="16" height="16" fill="white"/>
</clipPath>
</defs>
</svg>
